<svg xmlns="http://www.w3.org/2000/svg" version="1.1" xmlns:xlink="http://www.w3.org/1999/xlink" xmlns:svgjs="http://svgjs.dev/svgjs" width="1500" height="1687" viewBox="0 0 1500 1687"><g transform="matrix(1,0,0,1,0.00011015625000254659,0)"><svg viewBox="0 0 320 360" data-background-color="#282634" preserveAspectRatio="xMidYMid meet" height="1687" width="1500" xmlns="http://www.w3.org/2000/svg" xmlns:xlink="http://www.w3.org/1999/xlink"><g id="tight-bounds" transform="matrix(1,0,0,1,0.000023499999997511622,0)"><svg viewBox="0 0 320 360" height="360" width="320"><g><svg></svg></g><g><svg viewBox="0 0 320 360" height="360" width="320"><g><path transform="translate(-74.99272,-51.79039) scale(4.65793,4.65793)" d="M20.6 59.9l0.8 1-0.4-1.3c-0.1-0.6-0.8 0.1-0.4 0.3M21.5 59.3c0.3 0.5 0.6 1 0.6 1.5 0 0.7 0.6 1 1.1 1.2-0.7-0.8-1.1-3-1.7-2.7M59.9 16.9c1.7 0 3.3-0.2 5.1 0.2 4.4 1.1 8.1 3.3 10.6 6.4l7 11.2c0.3 2.8 0.9 5.9 0.8 9.3 0.7 0 0.6-1 1.4-1.2-0.8 2-1.2 4.5-1.4 7.4-0.5-1.6 0-4 0.1-5.3-0.7 1.1-1.1 0.3-1.1-0.2 0.1-0.8-0.3-0.7-0.6-1-1.1-1-1.8-2.1-2.6-3.8 0.5-1.3 0.6-3.2-1-4.2-0.5-0.3-1.1-0.8-1.4-1.6-0.4-1.1-1.1-2.4-0.9-4.1 0.1-0.5-1.5 1.1-2.4 0.4-3.9-2.7-7.8-5.8-12.5-8.4-2.5 0-4.3-0.9-5.2-2-0.8-1-0.2-2.3 1-2.4 0.7 0 1.5-0.2 2.1 0.2 0.1-0.4 0.5-0.9 1-0.9M50 14.6l0.2 0.1c1 0.2 1.5 1.6 2.6 1.1 0 0.7 0.1 1.4-0.1 1.9-0.3 0.8-1.2 0.8-1.9 0.8-6.7-0.4-10.6 2.4-14.7 4.8-1.1 0.7-2.3 1.2-3.2 2.1-4.3 4-9 7.7-10.1 15.1l-0.9 8.2c-0.1 0.9-1.1 1.8-0.9 2.9l0.7 4.9c-0.7-0.7-1.1 0.2-0.9 0.6 0.1 0.3 0.5 1.3 1.1 0.4 0.8 1.5 1.6 4.4 2.7 5.7 3.4 4 7.8 7.6 11.4 11.2 0.9-0.2 1.6-0.2 1.8-0.8 0.3 0.6-0.3 1.2-0.8 1.3 1.6 1 3.4 1.9 5.8 2.1 3.1 0.2 6 0.7 8.7 1.4 1.4-0.4 2.8-0.6 4.3-0.7 0.5 0 0.8-0.8 1.4-1l0.1-1c0.6 0.9 0.5-0.3 0.1-0.9 0.7 0.6 0.9 1.1 1.2 1.5 0-0.3 0.8-1.4 0.8-0.1l0.2-1.3c0.3-0.2 0.4 1.1 0.7 0.2 0.3-0.9 0.9-0.2 1.5-0.5-0.2 0.4-0.1 1.2 0.6 0.7l0.8-0.7c0.5 1.2 1.3 0.7 1.7 0.5 4.4-2.8 8.8-6.1 13-9.4l-0.1 1.3 0.5-1.6c0.5 0.5 0.9 0.1 1.1-0.2 0.6-1 1.4-2 2.7-2.9-1.6 4.3-3.5 7.7-5.9 10.5l-1 1.2c0 0.7-0.2 1.6-1 1.7-0.4 0.1-1.2-0.2-1.8 0.4-0.3 0.4 0.7 1.2-0.1 0.6-0.7-0.5-1.4 0-2.2 0.2-0.6 0.2 0.4 0.8 0.6 1.2 0.2 0.4 0.4 0.8 0.3 1.3l-1.1-1.2c-1.3 0.7-2.1 2-3.2 3-0.5 0.4-0.3 1.1-0.3 1.7-0.7 0-1.5-0.2-1.9 0.2-0.3 0.4-0.2 1-0.2 1.6-1-0.1-1.1-1.6-2-1.3-0.9 0.2-1.9 0.3-2.7 0.8 0.6 1.2-1 0.5-0.8 0.7-1.5-0.9-2.8-1.6-4.4-1-3.4-1.1-7.6-0.6-10.7-0.2 0-0.5 0.1-1-0.1-1.1-0.2 0.5-0.8 0.3-0.7 0.3-1.9-1.3-3.8-2.1-5.8-3.2-1.8 0.2-3.5-0.7-4-1.2-1.4-1.3-3-0.6-4.3-0.9-2.8-0.7-3.8-3.6-4.1-5.6-0.2-1-1-1.4-1.3-1.3-1.3-4.2-3.3-8-4.9-11.9-0.4-1-0.3-2-0.3-3.1 0.5 0.2 1 0.1 0.9-0.6-0.5-3.3-1.7-5.8-3-8.2 0.7-3.4 0.8-7.4 2.4-10.4 1.4-2.7 4-4.1 5.8-6.4 0.6-0.8 0.6-1.9 1.2-2.6 2-2 4-4.1 6.2-5.9 1-0.8 2.2 0 3.7-0.3 0.5-1.8 2.5-3.4 4.4-2.9 0.8 0.2 2.4-1.9 2.9-2.1 0.8-0.3 0.4 0.8 0.4 1.5 1.9-1.5 4.5-2.3 6.9-3.2" fill="#ff4057" fill-rule="nonzero" stroke="none" stroke-width="1" stroke-linecap="butt" stroke-linejoin="miter" stroke-miterlimit="10" stroke-dasharray="" stroke-dashoffset="0" font-family="none" font-weight="none" font-size="none" text-anchor="none" style="mix-blend-mode: normal" data-fill-palette-color="tertiary"></path></g><g transform="matrix(1,0,0,1,64,91.05670706857467)"><svg viewBox="0 0 192 177.88658586285067" height="177.88658586285067" width="192"><g><svg viewBox="0 0 192 177.88658586285067" height="177.88658586285067" width="192"><g><svg viewBox="0 0 192 177.88658586285067" height="177.88658586285067" width="192"><g transform="matrix(1,0,0,1,0,96.1994202831635)"><svg viewBox="0 0 192 81.68716557968717" height="81.68716557968717" width="192"><g id="textblocktransform"><svg viewBox="0 0 192 81.68716557968717" height="81.68716557968717" width="192" id="textblock"><g><svg viewBox="0 0 192 56.27198124267292" height="56.27198124267292" width="192"><g transform="matrix(1,0,0,1,0,0)"><svg width="192" viewBox="1.51 -36.38 124.94999999999999 36.620000000000005" height="56.27198124267292" data-palette-color="#ff4057"><path d="M25.44-14.26L25.44-14.26Q25.88-13.87 27.2-12.65 28.52-11.43 30.25-9.86 31.98-8.3 33.91-6.59 35.84-4.88 37.52-3.44 39.21-2 40.43-1.03 41.65-0.05 41.99 0L41.99 0 31.88 0Q31.59-0.39 31.05-0.95 30.52-1.51 29.93-2.08 29.35-2.64 28.78-3.17 28.22-3.71 27.83-4.05L27.83-4.05Q25.44-6.4 23.02-8.62 20.61-10.84 18.07-13.04L18.07-13.04Q16.06-12.79 14.11-12.72 12.16-12.65 10.16-12.55L10.16-12.55Q10.11-11.23 10.11-9.94 10.11-8.64 10.11-7.32L10.11-7.32Q10.11-6.88 10.11-5.81 10.11-4.74 10.16-3.52 10.21-2.29 10.38-1.29 10.55-0.29 10.84 0L10.84 0 2.29 0Q2.59-0.29 2.78-1.88 2.98-3.47 3.08-5.71 3.17-7.96 3.22-10.57 3.27-13.18 3.27-15.58 3.27-17.97 3.25-19.82 3.22-21.68 3.22-22.41L3.22-22.41Q3.22-22.85 3.25-23.97 3.27-25.1 3.25-26.56 3.22-28.03 3.15-29.64 3.08-31.25 2.88-32.62 2.69-33.98 2.34-34.91 2-35.84 1.51-35.99L1.51-35.99Q1.66-35.99 2.47-35.99 3.27-35.99 4.42-35.99 5.57-35.99 6.86-35.99 8.15-35.99 9.3-35.99 10.45-35.99 11.23-35.96 12.01-35.94 12.16-35.94L12.16-35.94Q13.92-35.94 16.63-35.86 19.34-35.79 22.39-35.45 25.44-35.11 28.52-34.45 31.59-33.79 34.06-32.57 36.52-31.35 38.09-29.52 39.65-27.69 39.65-25.05L39.65-25.05Q39.65-22.51 38.18-20.68 36.72-18.85 34.55-17.58 32.37-16.31 29.91-15.5 27.44-14.7 25.44-14.26ZM30.81-25.15L30.81-25.15Q30.81-26.61 29.59-27.61 28.37-28.61 26.44-29.22 24.51-29.83 22.14-30.13 19.78-30.42 17.53-30.54 15.28-30.66 13.4-30.66 11.52-30.66 10.55-30.66L10.55-30.66Q10.3-27.93 10.23-25.22 10.16-22.51 10.16-19.78L10.16-19.78 10.16-18.46Q12.06-18.51 13.96-18.55 15.87-18.6 17.72-18.75L17.72-18.75Q18.65-18.8 19.97-18.95 21.29-19.09 22.75-19.36 24.22-19.63 25.66-20.07 27.1-20.51 28.25-21.19 29.39-21.88 30.1-22.85 30.81-23.83 30.81-25.15ZM74.12-19.58Q74.36-20.65 74.56-21.7 74.75-22.75 74.75-23.88L74.75-23.88Q74.75-26.07 73.97-27.51 73.19-28.96 71.85-29.81 70.51-30.66 68.77-30.98 67.04-31.3 65.13-31.3L65.13-31.3Q63.96-31.3 62.45-31.13 60.94-30.96 59.35-30.59 57.76-30.22 56.2-29.64 54.64-29.05 53.44-28.17 52.24-27.29 51.49-26.1 50.73-24.9 50.73-23.39L50.73-23.39Q50.73-22.07 51.68-21.12 52.63-20.17 54.12-19.48 55.61-18.8 57.47-18.36 59.32-17.92 61.13-17.6 62.94-17.29 64.5-17.11 66.06-16.94 66.99-16.8L66.99-16.8Q68.16-16.6 69.85-16.33 71.53-16.06 73.34-15.63 75.14-15.19 76.93-14.55 78.71-13.92 80.12-13.01 81.54-12.11 82.42-10.91 83.3-9.72 83.3-8.15L83.3-8.15Q83.3-6.49 82.39-5.22 81.49-3.96 80-3 78.51-2.05 76.68-1.44 74.85-0.83 72.97-0.44 71.09-0.05 69.38 0.1 67.67 0.24 66.5 0.24L66.5 0.24Q61.33 0.24 56.25-0.61 51.17-1.46 46.34-3.37L46.34-3.37Q45.85-3.56 45.21-3.83 44.58-4.1 43.89-4.39 43.21-4.69 42.58-4.88 41.94-5.08 41.45-5.13L41.45-5.13Q41.75-5.42 42.36-5.96 42.97-6.49 43.58-7.13 44.19-7.76 44.7-8.33 45.21-8.89 45.31-9.18L45.31-9.18Q49.61-6.54 54.71-5.27 59.81-4 64.84-4L64.84-4Q65.67-4 67.45-4.13 69.24-4.25 71.02-4.64 72.8-5.03 74.14-5.74 75.49-6.45 75.49-7.62L75.49-7.62Q75.49-9.18 74.09-10.11 72.7-11.04 70.41-11.65 68.11-12.26 65.18-12.62 62.25-12.99 59.2-13.43 56.15-13.87 53.22-14.48 50.29-15.09 48-16.14 45.7-17.19 44.31-18.8 42.92-20.41 42.92-22.85L42.92-22.85Q42.92-25.44 43.97-27.44 45.02-29.44 46.8-30.96 48.58-32.47 50.85-33.5 53.12-34.52 55.59-35.16 58.05-35.79 60.5-36.08 62.94-36.38 64.99-36.38L64.99-36.38Q68.41-36.38 71.48-35.84 74.56-35.3 76.83-33.89 79.1-32.47 80.44-29.93 81.78-27.39 81.78-23.39L81.78-23.39Q81.78-22.41 81.71-21.48 81.64-20.56 81.54-19.58L81.54-19.58 74.12-19.58ZM103.71-20.7L103.71-20.7Q104.15-20.26 105.32-19.17 106.49-18.07 108.1-16.58 109.71-15.09 111.62-13.31 113.52-11.52 115.47-9.72 117.43-7.91 119.28-6.23 121.14-4.54 122.65-3.22 124.16-1.9 125.19-1.1 126.22-0.29 126.46-0.24L126.46-0.24 116.6 0Q116.21-0.54 115.67-1.05 115.13-1.56 114.64-2.1L114.64-2.1Q110.74-6.01 106.78-9.79 102.83-13.57 98.68-17.19L98.68-17.19 94.97-14.55Q94.97-12.74 94.94-10.94 94.92-9.13 94.92-7.32L94.92-7.32Q94.92-6.88 94.92-5.81 94.92-4.74 94.97-3.52 95.01-2.29 95.19-1.29 95.36-0.29 95.65 0L95.65 0 87.1 0Q87.4-0.29 87.59-1.88 87.79-3.47 87.91-5.74 88.03-8.01 88.06-10.62 88.08-13.23 88.08-15.6 88.08-17.97 88.06-19.82 88.03-21.68 88.03-22.41L88.03-22.41Q88.03-22.85 88.06-23.97 88.08-25.1 88.06-26.56 88.03-28.03 87.96-29.64 87.89-31.25 87.69-32.62 87.5-33.98 87.15-34.91 86.81-35.84 86.32-35.99L86.32-35.99 97.26-35.99Q96.67-35.99 96.28-35.03 95.89-34.08 95.65-32.62 95.41-31.15 95.26-29.42 95.11-27.69 95.06-26.07 95.01-24.46 95.01-23.22 95.01-21.97 95.01-21.53L95.01-21.53Q95.7-21.92 97.36-23.07 99.02-24.22 101.12-25.71 103.22-27.2 105.51-28.88 107.81-30.57 109.74-32.03 111.66-33.5 112.98-34.59 114.3-35.69 114.5-36.04L114.5-36.04 126.02-35.99Q125-35.45 123.7-34.52 122.41-33.59 121.43-32.91L121.43-32.91Q116.94-29.88 112.54-26.86 108.15-23.83 103.71-20.7Z" opacity="1" transform="matrix(1,0,0,1,0,0)" fill="#ff4057" class="wordmark-text-0" data-fill-palette-color="primary" id="text-0"></path></svg></g></svg></g><g transform="matrix(1,0,0,1,0,64.48341383352873)"><svg viewBox="0 0 192 17.20375174615845" height="17.20375174615845" width="192"><g transform="matrix(1,0,0,1,0,0)"><svg width="192" viewBox="0.65 -34.9 501.1 44.9" height="17.20375174615845" data-palette-color="#dcdcdc"><path d="M16.85 0L12.65 0 12.65-13.8 0.65-34.9 5.45-34.9 14.75-18.1 14.9-18.1 24.2-34.9 29-34.9 16.85-13.95 16.85 0ZM41.15 0.6L41.15 0.6Q38.55 0.6 36.4-0.35 34.25-1.3 32.73-3.08 31.2-4.85 30.35-7.33 29.5-9.8 29.5-12.9L29.5-12.9Q29.5-15.95 30.35-18.45 31.2-20.95 32.73-22.73 34.25-24.5 36.4-25.45 38.55-26.4 41.15-26.4L41.15-26.4Q43.75-26.4 45.88-25.45 48-24.5 49.55-22.73 51.1-20.95 51.95-18.45 52.8-15.95 52.8-12.9L52.8-12.9Q52.8-9.8 51.95-7.33 51.1-4.85 49.55-3.08 48-1.3 45.88-0.35 43.75 0.6 41.15 0.6ZM41.15-2.95L41.15-2.95Q44.4-2.95 46.45-4.95 48.5-6.95 48.5-11.05L48.5-11.05 48.5-14.75Q48.5-18.85 46.45-20.85 44.4-22.85 41.15-22.85L41.15-22.85Q37.9-22.85 35.85-20.85 33.8-18.85 33.8-14.75L33.8-14.75 33.8-11.05Q33.8-6.95 35.85-4.95 37.9-2.95 41.15-2.95ZM75.3 0L75.3-4.2 75.1-4.2Q74.7-3.3 74.13-2.43 73.55-1.55 72.7-0.88 71.85-0.2 70.65 0.2 69.45 0.6 67.85 0.6L67.85 0.6Q63.85 0.6 61.5-1.98 59.15-4.55 59.15-9.25L59.15-9.25 59.15-25.8 63.15-25.8 63.15-9.95Q63.15-3 69.05-3L69.05-3Q70.25-3 71.38-3.3 72.5-3.6 73.38-4.2 74.25-4.8 74.78-5.73 75.3-6.65 75.3-7.95L75.3-7.95 75.3-25.8 79.3-25.8 79.3 0 75.3 0ZM91.8 0L87.8 0 87.8-25.8 91.8-25.8 91.8-21.05 92.05-21.05Q92.75-22.9 94.55-24.35 96.35-25.8 99.5-25.8L99.5-25.8 101.05-25.8 101.05-21.8 98.7-21.8Q95.45-21.8 93.63-20.58 91.8-19.35 91.8-17.5L91.8-17.5 91.8 0ZM145.55 0L145.55-29.4 145.3-29.4 142.35-23.55 134-8.35 125.65-23.55 122.7-29.4 122.45-29.4 122.45 0 118.35 0 118.35-34.9 123.95-34.9 133.95-16.1 134.2-16.1 144.25-34.9 149.65-34.9 149.65 0 145.55 0ZM168.3 0.6L168.3 0.6Q165.7 0.6 163.55-0.35 161.4-1.3 159.88-3.08 158.35-4.85 157.5-7.33 156.65-9.8 156.65-12.9L156.65-12.9Q156.65-15.95 157.5-18.45 158.35-20.95 159.88-22.73 161.4-24.5 163.55-25.45 165.7-26.4 168.3-26.4L168.3-26.4Q170.9-26.4 173.03-25.45 175.15-24.5 176.7-22.73 178.25-20.95 179.1-18.45 179.95-15.95 179.95-12.9L179.95-12.9Q179.95-9.8 179.1-7.33 178.25-4.85 176.7-3.08 175.15-1.3 173.03-0.35 170.9 0.6 168.3 0.6ZM168.3-2.95L168.3-2.95Q171.55-2.95 173.6-4.95 175.65-6.95 175.65-11.05L175.65-11.05 175.65-14.75Q175.65-18.85 173.6-20.85 171.55-22.85 168.3-22.85L168.3-22.85Q165.05-22.85 163-20.85 160.95-18.85 160.95-14.75L160.95-14.75 160.95-11.05Q160.95-6.95 163-4.95 165.05-2.95 168.3-2.95ZM190.55 0L186.55 0 186.55-25.8 190.55-25.8 190.55-21.6 190.75-21.6Q191.7-23.8 193.43-25.1 195.15-26.4 198.05-26.4L198.05-26.4Q202.05-26.4 204.38-23.83 206.7-21.25 206.7-16.55L206.7-16.55 206.7 0 202.7 0 202.7-15.85Q202.7-22.8 196.85-22.8L196.85-22.8Q195.65-22.8 194.53-22.5 193.4-22.2 192.5-21.6 191.6-21 191.08-20.08 190.55-19.15 190.55-17.9L190.55-17.9 190.55 0ZM224.65 0.6L224.65 0.6Q222 0.6 219.88-0.35 217.75-1.3 216.23-3.08 214.7-4.85 213.88-7.33 213.05-9.8 213.05-12.9L213.05-12.9Q213.05-15.95 213.88-18.45 214.7-20.95 216.23-22.73 217.75-24.5 219.88-25.45 222-26.4 224.65-26.4L224.65-26.4Q227.25-26.4 229.3-25.45 231.35-24.5 232.8-22.83 234.25-21.15 235.03-18.85 235.8-16.55 235.8-13.8L235.8-13.8 235.8-11.9 217.25-11.9 217.25-10.7Q217.25-9.05 217.78-7.63 218.3-6.2 219.28-5.15 220.25-4.1 221.68-3.5 223.1-2.9 224.9-2.9L224.9-2.9Q227.35-2.9 229.18-4.05 231-5.2 232-7.35L232-7.35 234.85-5.3Q233.6-2.65 230.95-1.03 228.3 0.6 224.65 0.6ZM224.65-23.05L224.65-23.05Q223-23.05 221.65-22.48 220.3-21.9 219.33-20.85 218.35-19.8 217.8-18.38 217.25-16.95 217.25-15.25L217.25-15.25 217.25-14.9 231.5-14.9 231.5-15.45Q231.5-18.9 229.63-20.98 227.75-23.05 224.65-23.05ZM251.8-8.25L258.05-25.8 262-25.8 250.45 6Q250 7.15 249.55 7.93 249.1 8.7 248.45 9.15 247.8 9.6 246.83 9.8 245.85 10 244.45 10L244.45 10 242.4 10 242.4 6.5 246.45 6.5 248.4 1 238.75-25.8 242.75-25.8 248.95-8.25 250.15-4.05 250.4-4.05 251.8-8.25ZM266.9-5.85L266.9-5.85Q268.5-5.85 269.23-5.03 269.95-4.2 269.95-2.9L269.95-2.9 269.95-2.2Q269.95-0.15 268.75 2.33 267.55 4.8 265.4 6.65L265.4 6.65 262.05 6.65Q263.55 5.05 264.48 3.63 265.4 2.2 265.8 0.45L265.8 0.45Q264.8 0.2 264.33-0.5 263.85-1.2 263.85-2.2L263.85-2.2 263.85-2.9Q263.85-4.2 264.58-5.03 265.3-5.85 266.9-5.85ZM302.35 0L298.15 0 298.15-13.8 286.15-34.9 290.95-34.9 300.25-18.1 300.4-18.1 309.7-34.9 314.5-34.9 302.35-13.95 302.35 0ZM326.65 0.6L326.65 0.6Q324.05 0.6 321.9-0.35 319.75-1.3 318.23-3.08 316.7-4.85 315.85-7.33 315-9.8 315-12.9L315-12.9Q315-15.95 315.85-18.45 316.7-20.95 318.23-22.73 319.75-24.5 321.9-25.45 324.05-26.4 326.65-26.4L326.65-26.4Q329.25-26.4 331.38-25.45 333.5-24.5 335.05-22.73 336.6-20.95 337.45-18.45 338.3-15.95 338.3-12.9L338.3-12.9Q338.3-9.8 337.45-7.33 336.6-4.85 335.05-3.08 333.5-1.3 331.38-0.35 329.25 0.6 326.65 0.6ZM326.65-2.95L326.65-2.95Q329.9-2.95 331.95-4.95 334-6.95 334-11.05L334-11.05 334-14.75Q334-18.85 331.95-20.85 329.9-22.85 326.65-22.85L326.65-22.85Q323.4-22.85 321.35-20.85 319.3-18.85 319.3-14.75L319.3-14.75 319.3-11.05Q319.3-6.95 321.35-4.95 323.4-2.95 326.65-2.95ZM360.8 0L360.8-4.2 360.6-4.2Q360.2-3.3 359.63-2.43 359.05-1.55 358.2-0.88 357.35-0.2 356.15 0.2 354.95 0.6 353.35 0.6L353.35 0.6Q349.35 0.6 347-1.98 344.65-4.55 344.65-9.25L344.65-9.25 344.65-25.8 348.65-25.8 348.65-9.95Q348.65-3 354.55-3L354.55-3Q355.75-3 356.88-3.3 358-3.6 358.88-4.2 359.75-4.8 360.28-5.73 360.8-6.65 360.8-7.95L360.8-7.95 360.8-25.8 364.8-25.8 364.8 0 360.8 0ZM377.3 0L373.3 0 373.3-25.8 377.3-25.8 377.3-21.05 377.55-21.05Q378.25-22.9 380.05-24.35 381.85-25.8 385-25.8L385-25.8 386.55-25.8 386.55-21.8 384.2-21.8Q380.95-21.8 379.13-20.58 377.3-19.35 377.3-17.5L377.3-17.5 377.3 0ZM413.35 0L408.7 0 400.2-34.9 404.65-34.9 408.4-18.1 411.3-5.05 411.4-5.05 414.65-18.1 419.05-34.9 423.85-34.9 428.1-18.1 431.35-5.1 431.5-5.1 434.5-18.1 438.45-34.9 442.75-34.9 433.8 0 429.15 0 424.6-17.4 421.4-30.2 421.3-30.2 418-17.4 413.35 0ZM468.5 0L466.25 0Q464 0 463.03-1.2 462.05-2.4 461.8-4.2L461.8-4.2 461.55-4.2Q460.7-1.8 458.75-0.6 456.8 0.6 454.1 0.6L454.1 0.6Q450 0.6 447.73-1.5 445.45-3.6 445.45-7.2L445.45-7.2Q445.45-10.85 448.13-12.8 450.8-14.75 456.45-14.75L456.45-14.75 461.55-14.75 461.55-17.3Q461.55-20.05 460.05-21.5 458.55-22.95 455.45-22.95L455.45-22.95Q453.1-22.95 451.53-21.9 449.95-20.85 448.9-19.1L448.9-19.1 446.5-21.35Q447.55-23.45 449.85-24.93 452.15-26.4 455.65-26.4L455.65-26.4Q460.35-26.4 462.95-24.1 465.55-21.8 465.55-17.7L465.55-17.7 465.55-3.5 468.5-3.5 468.5 0ZM454.75-2.8L454.75-2.8Q456.25-2.8 457.5-3.15 458.75-3.5 459.65-4.15 460.55-4.8 461.05-5.65 461.55-6.5 461.55-7.5L461.55-7.5 461.55-11.75 456.25-11.75Q452.8-11.75 451.23-10.75 449.65-9.75 449.65-7.85L449.65-7.85 449.65-6.8Q449.65-4.9 451.03-3.85 452.4-2.8 454.75-2.8ZM483.6-8.25L489.85-25.8 493.8-25.8 482.25 6Q481.8 7.15 481.35 7.93 480.9 8.7 480.25 9.15 479.6 9.6 478.63 9.8 477.65 10 476.25 10L476.25 10 474.2 10 474.2 6.5 478.25 6.5 480.2 1 470.55-25.8 474.55-25.8 480.75-8.25 481.95-4.05 482.2-4.05 483.6-8.25ZM498.7 0.6L498.7 0.6Q497.1 0.6 496.38-0.2 495.65-1 495.65-2.3L495.65-2.3 495.65-2.95Q495.65-4.25 496.38-5.05 497.1-5.85 498.7-5.85L498.7-5.85Q500.3-5.85 501.03-5.05 501.75-4.25 501.75-2.95L501.75-2.95 501.75-2.3Q501.75-1 501.03-0.2 500.3 0.6 498.7 0.6Z" opacity="1" transform="matrix(1,0,0,1,0,0)" fill="#dcdcdc" class="slogan-text-1" data-fill-palette-color="secondary" id="text-1"></path></svg></g></svg></g></svg></g></svg></g><g transform="matrix(1,0,0,1,36.672,0)"><svg viewBox="0 0 118.656 87.9879876923077" height="87.9879876923077" width="118.656"><g><svg xmlns="http://www.w3.org/2000/svg" xmlns:xlink="http://www.w3.org/1999/xlink" version="1.1" x="0" y="0" viewBox="0 8.4 65 48.2" enable-background="new 0 0 65 65" xml:space="preserve" height="87.9879876923077" width="118.656" class="icon-icon-0" data-fill-palette-color="accent" id="icon-0"><g fill="#dcdcdc" data-fill-palette-color="accent"><path d="M42.6 14.3H14.5V25h28.1V14.3zM41.1 23.5H16v-7.7h25.2V23.5z" fill="#dcdcdc" data-fill-palette-color="accent"></path><rect x="16.5" y="45.9" width="7.9" height="1.5" fill="#dcdcdc" data-fill-palette-color="accent"></rect><rect x="35.9" y="49.3" width="1.6" height="1.5" fill="#dcdcdc" data-fill-palette-color="accent"></rect><rect x="32.8" y="45.9" width="7.9" height="1.5" fill="#dcdcdc" data-fill-palette-color="accent"></rect><rect x="35.9" y="42.4" width="1.6" height="1.5" fill="#dcdcdc" data-fill-palette-color="accent"></rect><polygon points="21.2,29.4 19.7,29.4 19.7,32.6 16.5,32.6 16.5,34 19.7,34 19.7,37.2 21.2,37.2 21.2,34 24.3,34 24.3,32.6    21.2,32.6  " fill="#dcdcdc" data-fill-palette-color="accent"></polygon><polygon points="39,30 36.7,32.3 34.5,30 33.4,31.1 35.7,33.3 33.4,35.6 34.5,36.6 36.7,34.4 39,36.6 40,35.6 37.8,33.3 40,31.1     " fill="#dcdcdc" data-fill-palette-color="accent"></polygon><rect x="46.1" y="38.5" transform="matrix(0.7071 -0.7071 0.7071 0.7071 -12.1564 49.0914)" width="14.2" height="1.5" fill="#dcdcdc" data-fill-palette-color="accent"></rect><path d="M56.3 39.9c-1.5 0-2.7 1.2-2.7 2.7 0 1.5 1.2 2.7 2.7 2.7 1.5 0 2.7-1.2 2.7-2.7C59 41.1 57.8 39.9 56.3 39.9zM56.3 43.7c-0.6 0-1.2-0.5-1.2-1.2 0-0.6 0.5-1.2 1.2-1.2 0.6 0 1.2 0.5 1.2 1.2C57.5 43.2 56.9 43.7 56.3 43.7z" fill="#dcdcdc" data-fill-palette-color="accent"></path><path d="M49.9 38.8c1.5 0 2.7-1.2 2.7-2.7s-1.2-2.7-2.7-2.7c-1.5 0-2.7 1.2-2.7 2.7S48.4 38.8 49.9 38.8zM49.9 34.9c0.6 0 1.2 0.5 1.2 1.2 0 0.6-0.5 1.2-1.2 1.2-0.6 0-1.2-0.5-1.2-1.2C48.7 35.4 49.2 34.9 49.9 34.9z" fill="#dcdcdc" data-fill-palette-color="accent"></path><path d="M61.5 30.9c-2.2-2.3-5.2-3.5-8.5-3.5-1.9 0-3.7 0.5-5.2 1.2V8.4H9.3v48.2h38.5V50c1.6 0.8 3.3 1.2 5.2 1.2h0.1c6.5 0 11.9-5.3 11.9-11.9C65 36.2 63.8 33.2 61.5 30.9zM46.3 55.1H10.8V9.9h35.6v19.6c-3.1 2.1-5.2 5.7-5.2 9.8 0 4.1 2 7.7 5.2 9.9V55.1zM53.1 49.8L53.1 49.8c-2.8 0-5.5-1.1-7.4-3.1-2-2-3-4.6-3-7.4 0-5.7 4.7-10.4 10.5-10.4 2.8 0 5.4 1.1 7.4 3.1 2 2 3 4.6 3 7.4C63.5 45.1 58.8 49.8 53.1 49.8z" fill="#dcdcdc" data-fill-palette-color="accent"></path><path d="M2.8 19.7C1.3 19.7 0 21 0 22.5v28.4l2.8 5.6 2.8-5.6V22.5C5.6 21 4.4 19.7 2.8 19.7zM2.8 21.2c0.7 0 1.3 0.6 1.3 1.3v3.6H1.5v-3.6C1.5 21.8 2.1 21.2 2.8 21.2zM4.1 27.6v20.2H1.5V27.6H4.1zM2.8 53.2l-1.3-2.7v-1.3h2.7v1.3L2.8 53.2z" fill="#dcdcdc" data-fill-palette-color="accent"></path></g></svg></g></svg></g><g></g></svg></g></svg></g></svg></g></svg></g><defs></defs></svg><rect width="320" height="360" fill="none" stroke="none" visibility="hidden"></rect></g></svg></g></svg>